<svg width="87" height="34" viewBox="0 0 87 34" fill="none" xmlns="http://www.w3.org/2000/svg">
<rect width="87" height="34" rx="8" fill="#212B36"/>
<path d="M20.125 23.75H17.875C17.5766 23.75 17.2905 23.6315 17.0795 23.4205C16.8685 23.2095 16.75 22.9234 16.75 22.625V18.3556L12.5819 14.1875C12.3706 13.9775 12.2513 13.6923 12.25 13.3944V11.375C12.25 11.0766 12.3685 10.7905 12.5795 10.5795C12.7905 10.3685 13.0766 10.25 13.375 10.25H24.625C24.9234 10.25 25.2095 10.3685 25.4205 10.5795C25.6315 10.7905 25.75 11.0766 25.75 11.375V13.3944C25.7487 13.6923 25.6294 13.9775 25.4181 14.1875L21.25 18.3556V22.625C21.25 22.9234 21.1315 23.2095 20.9205 23.4205C20.7095 23.6315 20.4234 23.75 20.125 23.75ZM13.375 11.375V13.3944L17.875 17.8944V22.625H20.125V17.8944L24.625 13.3944V11.375H13.375Z" fill="white"/>
<path d="M42.594 12.242V13.278H38.352V16.568H41.796V17.604H38.352V22H37.078V12.242H42.594ZM44.7907 13.082C44.548 13.082 44.3427 12.998 44.1747 12.83C44.0067 12.662 43.9227 12.4567 43.9227 12.214C43.9227 11.9713 44.0067 11.766 44.1747 11.598C44.3427 11.43 44.548 11.346 44.7907 11.346C45.024 11.346 45.22 11.43 45.3787 11.598C45.5467 11.766 45.6307 11.9713 45.6307 12.214C45.6307 12.4567 45.5467 12.662 45.3787 12.83C45.22 12.998 45.024 13.082 44.7907 13.082ZM45.4067 14.328V22H44.1327V14.328H45.4067ZM48.852 11.64V22H47.578V11.64H48.852ZM52.5773 15.378V19.9C52.5773 20.2733 52.6566 20.5393 52.8153 20.698C52.974 20.8473 53.2493 20.922 53.6413 20.922H54.5793V22H53.4313C52.722 22 52.19 21.8367 51.8353 21.51C51.4806 21.1833 51.3033 20.6467 51.3033 19.9V15.378H50.3093V14.328H51.3033V12.396H52.5773V14.328H54.5793V15.378H52.5773ZM63.1229 17.87C63.1229 18.1127 63.1089 18.3693 63.0809 18.64H56.9489C56.9956 19.396 57.2523 19.9887 57.7189 20.418C58.1949 20.838 58.7689 21.048 59.4409 21.048C59.9916 21.048 60.4489 20.922 60.8129 20.67C61.1863 20.4087 61.4476 20.0633 61.5969 19.634H62.9689C62.7636 20.3713 62.3529 20.9733 61.7369 21.44C61.1209 21.8973 60.3556 22.126 59.4409 22.126C58.7129 22.126 58.0596 21.9627 57.4809 21.636C56.9116 21.3093 56.4636 20.8473 56.1369 20.25C55.8103 19.6433 55.6469 18.9433 55.6469 18.15C55.6469 17.3567 55.8056 16.6613 56.1229 16.064C56.4403 15.4667 56.8836 15.0093 57.4529 14.692C58.0316 14.3653 58.6943 14.202 59.4409 14.202C60.1689 14.202 60.8129 14.3607 61.3729 14.678C61.9329 14.9953 62.3623 15.434 62.6609 15.994C62.9689 16.5447 63.1229 17.17 63.1229 17.87ZM61.8069 17.604C61.8069 17.1187 61.6996 16.7033 61.4849 16.358C61.2703 16.0033 60.9763 15.7373 60.6029 15.56C60.2389 15.3733 59.8329 15.28 59.3849 15.28C58.7409 15.28 58.1903 15.4853 57.7329 15.896C57.2849 16.3067 57.0283 16.876 56.9629 17.604H61.8069ZM66.0786 15.574C66.3026 15.1353 66.6199 14.7947 67.0306 14.552C67.4506 14.3093 67.9592 14.188 68.5566 14.188V15.504H68.2206C66.7926 15.504 66.0786 16.2787 66.0786 17.828V22H64.8046V14.328H66.0786V15.574ZM72.7432 22.126C72.1552 22.126 71.6279 22.028 71.1612 21.832C70.6946 21.6267 70.3259 21.3467 70.0552 20.992C69.7846 20.628 69.6352 20.2127 69.6072 19.746H70.9232C70.9606 20.1287 71.1379 20.4413 71.4552 20.684C71.7819 20.9267 72.2066 21.048 72.7292 21.048C73.2146 21.048 73.5972 20.9407 73.8772 20.726C74.1572 20.5113 74.2972 20.2407 74.2972 19.914C74.2972 19.578 74.1479 19.3307 73.8492 19.172C73.5506 19.004 73.0886 18.8407 72.4632 18.682C71.8939 18.5327 71.4272 18.3833 71.0632 18.234C70.7086 18.0753 70.4006 17.8467 70.1392 17.548C69.8872 17.24 69.7612 16.8387 69.7612 16.344C69.7612 15.952 69.8779 15.5927 70.1112 15.266C70.3446 14.9393 70.6759 14.6827 71.1052 14.496C71.5346 14.3 72.0246 14.202 72.5752 14.202C73.4246 14.202 74.1106 14.4167 74.6332 14.846C75.1559 15.2753 75.4359 15.8633 75.4732 16.61H74.1992C74.1712 16.2087 74.0079 15.8867 73.7092 15.644C73.4199 15.4013 73.0279 15.28 72.5332 15.28C72.0759 15.28 71.7119 15.378 71.4412 15.574C71.1706 15.77 71.0352 16.0267 71.0352 16.344C71.0352 16.596 71.1146 16.806 71.2732 16.974C71.4412 17.1327 71.6466 17.2633 71.8892 17.366C72.1412 17.4593 72.4866 17.5667 72.9252 17.688C73.4759 17.8373 73.9239 17.9867 74.2692 18.136C74.6146 18.276 74.9086 18.4907 75.1512 18.78C75.4032 19.0693 75.5339 19.4473 75.5432 19.914C75.5432 20.334 75.4266 20.712 75.1932 21.048C74.9599 21.384 74.6286 21.65 74.1992 21.846C73.7792 22.0327 73.2939 22.126 72.7432 22.126Z" fill="white"/>
</svg>
