<svg width="75" height="20" viewBox="0 0 75 20" fill="none" xmlns="http://www.w3.org/2000/svg">
<ellipse cx="69.1667" cy="14.1667" rx="4.16669" ry="4.16666" fill="#FA541C"/>
<path d="M49.4438 18.3333H45.3594L38.5282 8.05314V18.3333H34.4438V1.66663H38.5282L45.3594 11.9943V1.66663H49.4438V18.3333Z" fill="white"/>
<path d="M55.6428 4.91924V8.29056H61.1105V11.4245H55.6428V15.0807H61.666V18.3333H51.666V1.66663H61.666V4.91924H55.6428Z" fill="white"/>
<path d="M23.9114 18.3333C22.3836 18.3333 20.9793 17.9779 19.6984 17.267C18.433 16.5561 17.4222 15.5671 16.666 14.2999C15.9253 13.0173 15.5549 11.5801 15.5549 9.98837C15.5549 8.39665 15.9253 6.9672 16.666 5.70001C17.4222 4.43281 18.433 3.44379 19.6984 2.73292C20.9793 2.02206 22.3836 1.66663 23.9114 1.66663C25.4392 1.66663 26.8358 2.02206 28.1012 2.73292C29.3821 3.44379 30.3852 4.43281 31.1105 5.70001C31.8512 6.9672 32.2216 8.39665 32.2216 9.98837C32.2216 11.5801 31.8512 13.0173 31.1105 14.2999C30.3697 15.5671 29.3666 16.5561 28.1012 17.267C26.8358 17.9779 25.4392 18.3333 23.9114 18.3333ZM23.9114 14.7172C25.2077 14.7172 26.2416 14.2845 27.0132 13.4191C27.8003 12.5537 28.1938 11.4101 28.1938 9.98837C28.1938 8.55119 27.8003 7.40762 27.0132 6.55768C26.2416 5.69228 25.2077 5.25958 23.9114 5.25958C22.5997 5.25958 21.5503 5.68455 20.7632 6.5345C19.9916 7.38444 19.6058 8.53573 19.6058 9.98837C19.6058 11.4256 19.9916 12.5768 20.7632 13.4422C21.5503 14.2922 22.5997 14.7172 23.9114 14.7172Z" fill="white"/>
<path d="M6.22919 15.0095H13.3327V18.3333H1.66602V15.2469L8.72247 4.99046H1.66602V1.66663H13.3327V4.75305L6.22919 15.0095Z" fill="white"/>
</svg>
