<svg width="20" height="24" viewBox="0 0 20 24" fill="none" xmlns="http://www.w3.org/2000/svg">
<path d="M16.8547 12.9811C16.8437 11.1162 17.6887 9.71074 19.3949 8.67441C18.4406 7.30723 16.9969 6.55527 15.0937 6.41035C13.2918 6.26816 11.3203 7.46035 10.5984 7.46035C9.83555 7.46035 8.09102 6.45957 6.71836 6.45957C3.88555 6.50332 0.875 8.71816 0.875 13.2244C0.875 14.5561 1.11836 15.9314 1.60508 17.3479C2.25586 19.2127 4.60195 23.7818 7.04922 23.708C8.32891 23.6779 9.23398 22.8002 10.8992 22.8002C12.5152 22.8002 13.352 23.708 14.7793 23.708C17.2484 23.6725 19.3703 19.5189 19.9883 17.6486C16.677 16.0873 16.8547 13.0768 16.8547 12.9811ZM13.9809 4.64121C15.3672 2.99512 15.2414 1.49668 15.2004 0.958008C13.9754 1.0291 12.559 1.79199 11.7523 2.72988C10.8637 3.73613 10.3414 4.98027 10.4535 6.38301C11.777 6.48418 12.9855 5.80332 13.9809 4.64121Z" fill="white"/>
</svg>
