<svg width="29" height="29" viewBox="0 0 29 29" fill="none" xmlns="http://www.w3.org/2000/svg">
<path fill-rule="evenodd" clip-rule="evenodd" d="M4.43377 1.58065C4.15832 1.87669 4 2.33234 4 2.92443V23.9847C4 24.5768 4.15832 25.0325 4.44407 25.3182L4.51872 25.3813L16.3193 13.5807V13.3156L4.50842 1.51758L4.43377 1.58065Z" fill="url(#paint0_linear_24996_15286)"/>
<path fill-rule="evenodd" clip-rule="evenodd" d="M20.2452 17.5291L16.3091 13.5917V13.3163L20.2465 9.37891L20.3314 9.43168L24.9883 12.0781C26.3218 12.8297 26.3218 14.068 24.9883 14.83L20.3314 17.4764C20.3301 17.4764 20.2452 17.5291 20.2452 17.5291Z" fill="url(#paint1_linear_24996_15286)"/>
<path fill-rule="evenodd" clip-rule="evenodd" d="M20.3299 17.4764L16.3088 13.4541L4.43359 25.3293C4.86736 25.7953 5.59718 25.848 6.41323 25.3924L20.3299 17.4764Z" fill="url(#paint2_linear_24996_15286)"/>
<path fill-rule="evenodd" clip-rule="evenodd" d="M20.3299 9.43319L6.41323 1.52753C5.59846 1.06158 4.86736 1.12465 4.43359 1.5906L16.3075 13.4542L20.3299 9.43319Z" fill="url(#paint3_linear_24996_15286)"/>
<defs>
<linearGradient id="paint0_linear_24996_15286" x1="15.2597" y1="2.69805" x2="-3.64282" y2="7.73463" gradientUnits="userSpaceOnUse">
<stop stop-color="#00A0FF"/>
<stop offset="0.007" stop-color="#00A1FF"/>
<stop offset="0.26" stop-color="#00BEFF"/>
<stop offset="0.512" stop-color="#00D2FF"/>
<stop offset="0.76" stop-color="#00DFFF"/>
<stop offset="1" stop-color="#00E3FF"/>
</linearGradient>
<linearGradient id="paint1_linear_24996_15286" x1="26.7235" y1="13.4546" x2="3.676" y2="13.4546" gradientUnits="userSpaceOnUse">
<stop stop-color="#FFE000"/>
<stop offset="0.409" stop-color="#FFBD00"/>
<stop offset="0.775" stop-color="#FFA500"/>
<stop offset="1" stop-color="#FF9C00"/>
</linearGradient>
<linearGradient id="paint2_linear_24996_15286" x1="18.1433" y1="15.6423" x2="2.96836" y2="41.1828" gradientUnits="userSpaceOnUse">
<stop stop-color="#FF3A44"/>
<stop offset="1" stop-color="#C31162"/>
</linearGradient>
<linearGradient id="paint3_linear_24996_15286" x1="1.44431" y1="-5.42539" x2="8.21433" y2="5.98139" gradientUnits="userSpaceOnUse">
<stop stop-color="#32A071"/>
<stop offset="0.069" stop-color="#2DA771"/>
<stop offset="0.476" stop-color="#15CF74"/>
<stop offset="0.801" stop-color="#06E775"/>
<stop offset="1" stop-color="#00F076"/>
</linearGradient>
</defs>
</svg>
