<svg width="136" height="28" viewBox="0 0 136 28" fill="none" xmlns="http://www.w3.org/2000/svg">
<path d="M17.75 7.62504C17.75 7.52558 17.7105 7.4302 17.6402 7.35988C17.5698 7.28955 17.4745 7.25004 17.375 7.25004H15.5C14.5558 7.20301 13.6314 7.53158 12.9288 8.16397C12.2261 8.79637 11.8023 9.68116 11.75 10.625V12.65H9.875C9.77554 12.65 9.68016 12.6895 9.60984 12.7599C9.53951 12.8302 9.5 12.9256 9.5 13.025V14.975C9.5 15.0745 9.53951 15.1699 9.60984 15.2402C9.68016 15.3105 9.77554 15.35 9.875 15.35H11.75V20.375C11.75 20.4745 11.7895 20.5699 11.8598 20.6402C11.9302 20.7105 12.0255 20.75 12.125 20.75H14.375C14.4745 20.75 14.5698 20.7105 14.6402 20.6402C14.7105 20.5699 14.75 20.4745 14.75 20.375V15.35H16.715C16.7984 15.3512 16.8798 15.3246 16.9464 15.2743C17.0129 15.2241 17.0608 15.1531 17.0825 15.0725L17.6225 13.1225C17.6374 13.0671 17.6394 13.009 17.6284 12.9527C17.6173 12.8964 17.5935 12.8434 17.5587 12.7978C17.5239 12.7521 17.4791 12.7151 17.4278 12.6895C17.3764 12.6638 17.3199 12.6504 17.2625 12.65H14.75V10.625C14.7687 10.4394 14.8558 10.2674 14.9945 10.1426C15.1332 10.0177 15.3134 9.94911 15.5 9.95004H17.375C17.4745 9.95004 17.5698 9.91053 17.6402 9.8402C17.7105 9.76988 17.75 9.6745 17.75 9.57504V7.62504Z" fill="#212B36"/>
<path d="M53.6033 11.2069C54.0506 11.2069 54.4133 10.8442 54.4133 10.3969C54.4133 9.94952 54.0506 9.58687 53.6033 9.58687C53.1559 9.58687 52.7933 9.94952 52.7933 10.3969C52.7933 10.8442 53.1559 11.2069 53.6033 11.2069Z" fill="#212B36"/>
<path d="M50.0003 10.5337C49.3148 10.5337 48.6446 10.737 48.0746 11.1179C47.5046 11.4988 47.0603 12.0401 46.798 12.6735C46.5356 13.3069 46.467 14.0038 46.6007 14.6762C46.7345 15.3486 47.0646 15.9662 47.5493 16.451C48.0341 16.9357 48.6517 17.2659 49.3241 17.3996C49.9965 17.5334 50.6934 17.4647 51.3268 17.2024C51.9602 16.94 52.5015 16.4957 52.8824 15.9257C53.2633 15.3557 53.4666 14.6855 53.4666 14C53.4666 13.0807 53.1014 12.199 52.4513 11.549C51.8013 10.8989 50.9197 10.5337 50.0003 10.5337ZM50.0003 16.25C49.5553 16.25 49.1203 16.118 48.7503 15.8708C48.3803 15.6236 48.0919 15.2722 47.9216 14.861C47.7513 14.4499 47.7068 13.9975 47.7936 13.561C47.8804 13.1246 48.0947 12.7237 48.4094 12.409C48.724 12.0943 49.1249 11.88 49.5614 11.7932C49.9979 11.7064 50.4503 11.751 50.8614 11.9213C51.2725 12.0916 51.6239 12.3799 51.8712 12.75C52.1184 13.12 52.2503 13.555 52.2503 14C52.2503 14.5967 52.0133 15.169 51.5913 15.591C51.1694 16.0129 50.5971 16.25 50.0003 16.25Z" fill="#212B36"/>
<path d="M50 8.46624C51.8023 8.46624 52.0158 8.4731 52.7276 8.50561C53.1556 8.51071 53.5796 8.58933 53.981 8.73804C54.2721 8.85036 54.5364 9.02237 54.7571 9.24299C54.9777 9.46362 55.1497 9.72798 55.262 10.0191C55.4107 10.4205 55.4893 10.8445 55.4944 11.2725C55.5269 11.9842 55.5338 12.1977 55.5338 14.0001C55.5338 15.8024 55.527 16.0159 55.4944 16.7276C55.4893 17.1557 55.4107 17.5796 55.262 17.981C55.1497 18.2721 54.9777 18.5365 54.7571 18.7571C54.5364 18.9777 54.2721 19.1498 53.981 19.2621C53.5796 19.4108 53.1556 19.4894 52.7276 19.4945C52.0159 19.527 51.8025 19.5339 50 19.5339C48.1975 19.5339 47.9841 19.527 47.2724 19.4945C46.8444 19.4894 46.4204 19.4108 46.019 19.2621C45.7279 19.1498 45.4636 18.9777 45.2429 18.7571C45.0223 18.5365 44.8503 18.2721 44.738 17.981C44.5893 17.5796 44.5107 17.1557 44.5056 16.7276C44.4731 16.0159 44.4662 15.8024 44.4662 14.0001C44.4662 12.1977 44.473 11.9842 44.5056 11.2725C44.5107 10.8445 44.5893 10.4205 44.738 10.0191C44.8503 9.72797 45.0223 9.4636 45.2429 9.24296C45.4636 9.02233 45.7279 8.85031 46.019 8.73798C46.4204 8.58927 46.8444 8.51065 47.2724 8.50556C47.9842 8.4731 48.1977 8.46624 50 8.46624ZM50 7.25C48.1668 7.25 47.9369 7.25776 47.217 7.29061C46.6571 7.30185 46.1032 7.40794 45.5788 7.60438C45.1303 7.7778 44.723 8.04301 44.383 8.38301C44.043 8.72301 43.7778 9.13029 43.6044 9.57875C43.4079 10.1033 43.3018 10.6573 43.2906 11.2173C43.2578 11.9369 43.25 12.1668 43.25 14C43.25 15.8332 43.2578 16.0631 43.2906 16.783C43.3018 17.343 43.4079 17.897 43.6044 18.4215C43.7778 18.87 44.043 19.2773 44.383 19.6173C44.723 19.9573 45.1303 20.2225 45.5788 20.3959C46.1033 20.5924 46.6573 20.6985 47.2173 20.7097C47.9369 20.7422 48.1668 20.75 50 20.75C51.8332 20.75 52.0631 20.7422 52.783 20.7094C53.343 20.6982 53.897 20.5921 54.4215 20.3956C54.87 20.2222 55.2773 19.957 55.6173 19.617C55.9573 19.277 56.2225 18.8697 56.3959 18.4213C56.5924 17.8967 56.6985 17.3427 56.7097 16.7827C56.7422 16.0631 56.75 15.8332 56.75 14C56.75 12.1668 56.7422 11.9369 56.7094 11.217C56.6981 10.6571 56.5921 10.1032 56.3956 9.57875C56.2222 9.13034 55.9569 8.72311 55.6169 8.38317C55.277 8.04322 54.8697 7.77805 54.4213 7.60466C53.8967 7.4082 53.3427 7.30211 52.7827 7.29089C52.0631 7.25776 51.8332 7.25 50 7.25Z" fill="#212B36"/>
<path d="M91.7375 7.25H80.2625C79.7 7.25 79.25 7.7 79.25 8.20625V19.7375C79.25 20.2438 79.7 20.6937 80.2625 20.6937H91.7375C92.3 20.6937 92.75 20.2438 92.75 19.7375V8.20625C92.75 7.7 92.3 7.25 91.7375 7.25ZM83.2438 18.725H81.275V12.3125H83.2438V18.725ZM82.2875 11.4125C81.6687 11.4125 81.1063 10.9063 81.1063 10.2313C81.1063 9.55625 81.6125 9.05 82.2875 9.05C82.9062 9.05 83.4688 9.55625 83.4688 10.2313C83.4688 10.9063 82.9062 11.4125 82.2875 11.4125ZM90.7812 18.6687H88.8125V15.5188C88.8125 14.7875 88.8125 13.775 87.7438 13.775C86.675 13.775 86.5625 14.6188 86.5625 15.4062V18.6125H84.5938V12.3125H86.45V13.1562H86.5062C86.7875 12.65 87.4625 12.0875 88.4187 12.0875C90.4437 12.0875 90.8375 13.4375 90.8375 15.1813V18.6687H90.7812Z" fill="#212B36"/>
<path d="M119.705 19.0289C120.655 19.0348 121.597 18.8521 122.476 18.4913C123.355 18.1304 124.154 17.5986 124.825 16.9268C125.497 16.2549 126.029 15.4563 126.39 14.5773C126.751 13.6984 126.933 12.7565 126.927 11.8064C126.927 11.6939 126.927 11.587 126.927 11.4745C127.42 11.1136 127.846 10.6702 128.188 10.1639C127.724 10.3667 127.233 10.5012 126.731 10.5632C127.263 10.2459 127.663 9.7463 127.856 9.15699C127.359 9.4548 126.815 9.66416 126.247 9.77574C125.864 9.36813 125.358 9.09796 124.807 9.00702C124.255 8.91608 123.689 9.00944 123.196 9.27267C122.703 9.53589 122.31 9.9543 122.079 10.4632C121.847 10.972 121.79 11.5429 121.916 12.0876C120.907 12.0381 119.919 11.7766 119.018 11.3201C118.117 10.8636 117.321 10.2224 116.684 9.43824C116.363 9.99577 116.266 10.6545 116.412 11.2812C116.558 11.9078 116.937 12.4554 117.472 12.8132C117.077 12.798 116.692 12.6901 116.347 12.4982V12.5264C116.343 13.109 116.54 13.6753 116.903 14.1308C117.266 14.5863 117.775 14.9034 118.344 15.0295C117.977 15.1282 117.592 15.1436 117.219 15.0745C117.383 15.5714 117.698 16.0052 118.119 16.3164C118.54 16.6276 119.047 16.8009 119.57 16.8126C118.675 17.5329 117.563 17.9294 116.414 17.9376C116.213 17.9318 116.012 17.9149 115.812 17.887C116.975 18.6277 118.326 19.0183 119.705 19.012" fill="#212B36"/>
</svg>
