<svg width="20" height="20" viewBox="0 0 20 20" fill="none" xmlns="http://www.w3.org/2000/svg">
<path d="M18.1256 17.2411L13.4056 12.521C14.5398 11.1594 15.1054 9.41288 14.9847 7.64485C14.864 5.87682 14.0663 4.22339 12.7576 3.02851C11.4488 1.83363 9.72983 1.1893 7.95814 1.22956C6.18646 1.26982 4.49849 1.99157 3.2454 3.24467C1.9923 4.49776 1.27055 6.18572 1.23029 7.95741C1.19003 9.7291 1.83436 11.4481 3.02924 12.7568C4.22412 14.0655 5.87756 14.8632 7.64559 14.9839C9.41361 15.1046 11.1601 14.539 12.5218 13.4048L17.2418 18.1249L18.1256 17.2411ZM2.50064 8.1249C2.50064 7.01238 2.83054 5.92485 3.44862 4.99982C4.0667 4.0748 4.94521 3.35382 5.97304 2.92808C7.00088 2.50234 8.13188 2.39094 9.22302 2.60799C10.3142 2.82503 11.3164 3.36076 12.1031 4.14743C12.8898 4.9341 13.4255 5.93638 13.6426 7.02752C13.8596 8.11866 13.7482 9.24966 13.3225 10.2775C12.8967 11.3053 12.1757 12.1838 11.2507 12.8019C10.3257 13.42 9.23816 13.7499 8.12564 13.7499C6.6343 13.7483 5.20452 13.1551 4.14999 12.1006C3.09545 11.046 2.50229 9.61624 2.50064 8.1249Z" fill="white"/>
</svg>
